<svg xmlns="http://www.w3.org/2000/svg" viewBox="5 5 90 90">
	<path d="M5,10.537C5,7.492,7.491,5,10.537,5h38.079v31.946h-9.611L25.916,23.857H5V10.537z M60.286,39.714v20.572H39.714V39.714  H60.286z M5,26.626h19.769l12.177,12.177v9.813H5V26.626z M5,51.384h31.946v9.813L24.769,73.374H5V51.384z M48.615,95H10.537  C7.491,95,5,92.508,5,89.463V76.143h20.916l13.088-13.088h9.611V95z M95,89.463C95,92.508,92.508,95,89.463,95H51.384V63.054h9.612  l13.088,13.088H95V89.463z M95,73.374H75.231L63.054,61.198v-9.813H95V73.374z M95,48.616H63.054v-9.813l12.177-12.177H95V48.616z   M95,23.857H74.084L60.996,36.946h-9.612V5h38.079C92.508,5,95,7.492,95,10.537V23.857z" fill="#df1922"/>
</svg>